<svg xmlns="http://www.w3.org/2000/svg" xmlns:xlink="http://www.w3.org/1999/xlink" xmlns:lucid="lucid" width="1020" height="1268"><g transform="translate(-660 1188)" lucid:page-tab-id="0_0"><path d="M1010.33-1042c0-4.42 3.58-8 8-8h204c4.4 0 8 3.58 8 8v44c0 4.42-3.6 8-8 8h-204c-4.42 0-8-3.58-8-8z" stroke="#c54242" stroke-width="4" fill="#fff"/><use xlink:href="#a" transform="matrix(1,0,0,1,1015.3252032520327,-1045) translate(2.0962962962962735 29.56666666666667)"/><path d="M1007-177.5H853.2" stroke="#5e5e5e" stroke-width="2" fill="none"/><path d="M1008-177.52l.02 1.02h-1.05v-2h1.07z" stroke="#5e5e5e" stroke-width=".05" fill="#5e5e5e"/><path d="M837.92-177.5l14.27-4.64v9.28z" stroke="#5e5e5e" stroke-width="2" fill="#5e5e5e"/><path d="M1123-30c17.67 0 32 20.15 32 45s-14.33 45-32 45h-96c-17.67 0-32-20.15-32-45s14.33-45 32-45z" stroke="#000" stroke-opacity="0" stroke-width="2" fill="#c7e8ac"/><use xlink:href="#b" transform="matrix(1,0,0,1,1000,-25) translate(9.560555555555561 21)"/><use xlink:href="#c" transform="matrix(1,0,0,1,1000,-25) translate(105.005 21)"/><use xlink:href="#d" transform="matrix(1,0,0,1,1000,-25) translate(41.75000000000001 44.99999999999999)"/><use xlink:href="#e" transform="matrix(1,0,0,1,1000,-25) translate(26.754999999999995 68.99999999999999)"/><path d="M1328-20c17.67 0 32 17.9 32 40s-14.33 40-32 40h-96c-17.67 0-32-17.9-32-40s14.33-40 32-40z" stroke="#000" stroke-opacity="0" stroke-width="2" fill="#d2d3d5"/><use xlink:href="#b" transform="matrix(1,0,0,1,1205,-15) translate(9.560555555555561 26.9375)"/><use xlink:href="#c" transform="matrix(1,0,0,1,1205,-15) translate(105.005 26.9375)"/><use xlink:href="#f" transform="matrix(1,0,0,1,1205,-15) translate(38.921666666666674 50.9375)"/><path d="M1075-122v73.5" stroke="#5e5e5e" stroke-width="2" fill="none"/><path d="M1074.98-123l1.02-.02v1.05h-2v-1.07z" stroke="#5e5e5e" stroke-width=".05" fill="#5e5e5e"/><path d="M1075-33.24l-4.64-14.26h9.28z" stroke="#5e5e5e" stroke-width="2" fill="#5e5e5e"/><path d="M930-307.5v40.43c0 3.32 2.7 6 6 6h82.87c3.3 0 6 2.7 6 6v22.94" stroke="#5e5e5e" stroke-width="2" fill="none"/><path d="M931-307.47h-2v-1.03h2z" stroke="#5e5e5e" stroke-width=".05" fill="#5e5e5e"/><path d="M1024.87-216.87l-4.64-14.26h9.27z" stroke="#5e5e5e" stroke-width="2" fill="#5e5e5e"/><path d="M808-30c17.67 0 32 20.15 32 45s-14.33 45-32 45h-96c-17.67 0-32-20.15-32-45s14.33-45 32-45z" stroke="#000" stroke-opacity="0" stroke-width="2" fill="#c7e8ac"/><use xlink:href="#b" transform="matrix(1,0,0,1,685,-25) translate(9.560555555555561 21)"/><use xlink:href="#c" transform="matrix(1,0,0,1,685,-25) translate(105.005 21)"/><use xlink:href="#g" transform="matrix(1,0,0,1,685,-25) translate(33.97222222222223 44.99999999999999)"/><use xlink:href="#e" transform="matrix(1,0,0,1,685,-25) translate(26.754999999999995 68.99999999999999)"/><path d="M760-134.5v86" stroke="#5e5e5e" stroke-width="2" fill="none"/><path d="M760-135.5l1-.03v1.06h-2v-1.06z" stroke="#5e5e5e" stroke-width=".05" fill="#5e5e5e"/><path d="M760-33.24l-4.64-14.26h9.28z" stroke="#5e5e5e" stroke-width="2" fill="#5e5e5e"/><path d="M834.45-364.2c.86-3.2 4.24-5.8 7.55-5.8h192c3.3 0 5.3 2.6 4.45 5.8l-12.9 48.4c-.86 3.2-4.24 5.8-7.55 5.8H826c-3.3 0-5.3-2.6-4.45-5.8z" stroke="#fff" stroke-width="3" fill="#ffdba9"/><use xlink:href="#h" transform="matrix(1,0,0,1,825,-365) translate(27.10376543209879 29.84722222222222)"/><use xlink:href="#i" transform="matrix(1,0,0,1,825,-365) translate(91.20253086419754 29.84722222222222)"/><path d="M1120.33-687v401c0 3.3 2.68 6 6 6H1274c3.3 0 6 2.7 6 6v235.5" stroke="#5e5e5e" stroke-width="2" fill="none"/><path d="M1121.33-686.97h-2V-688h2z" stroke="#5e5e5e" stroke-width=".05" fill="#5e5e5e"/><path d="M1280-23.24l-4.64-14.26h9.28z" stroke="#5e5e5e" stroke-width="2" fill="#5e5e5e"/><path d="M1120.33-987v21.5" stroke="#5e5e5e" stroke-width="2" fill="none"/><path d="M1121.33-986.97h-2V-988h2z" stroke="#5e5e5e" stroke-width=".05" fill="#5e5e5e"/><path d="M1120.33-950.24l-4.64-14.26h9.26z" stroke="#5e5e5e" stroke-width="2" fill="#5e5e5e"/><path d="M1120.33-877.8v7.3" stroke="#5e5e5e" stroke-width="2" fill="none"/><path d="M1121.33-877.76h-2v-1.03h2z" stroke="#5e5e5e" stroke-width=".05" fill="#5e5e5e"/><path d="M1120.33-855.24l-4.64-14.26h9.26z" stroke="#5e5e5e" stroke-width="2" fill="#5e5e5e"/><path d="M840-1160c0-4.42 3.58-8 8-8h144c4.42 0 8 3.58 8 8v90c0 4.42-3.58 8-8 8H848c-4.42 0-8-3.58-8-8z" stroke="#3aa6dd" stroke-width="4" fill="#fff"/><use xlink:href="#j" transform="matrix(1,0,0,1,845,-1163) translate(27.833333333333357 15.999999999999995)"/><use xlink:href="#k" transform="matrix(1,0,0,1,845,-1163) translate(26.222222222222243 39.999999999999986)"/><use xlink:href="#l" transform="matrix(1,0,0,1,845,-1163) translate(35.1388888888889 63.99999999999998)"/><use xlink:href="#m" transform="matrix(1,0,0,1,845,-1163) translate(30.694444444444457 87.99999999999997)"/><path d="M1010.33-937c0-4.42 3.58-8 8-8h204c4.4 0 8 3.58 8 8v48.2c0 4.43-3.6 8-8 8h-204c-4.42 0-8-3.57-8-8z" stroke="#c54242" stroke-width="4" fill="#fff"/><use xlink:href="#n" transform="matrix(1,0,0,1,1015.3252032520327,-940) translate(2.4722222222222427 33.18749999999999)"/><path d="M1010.33-842c0-4.42 3.58-8 8-8h204c4.4 0 8 3.58 8 8v44c0 4.42-3.6 8-8 8h-204c-4.42 0-8-3.58-8-8z" stroke="#c54242" stroke-width="4" fill="#fff"/><use xlink:href="#o" transform="matrix(1,0,0,1,1015.3252032520327,-845) translate(3.6111111111111427 28.499999999999993)"/><path d="M1003-1115h111.33c3.3 0 6 2.7 6 6v38.5" stroke="#5e5e5e" stroke-width="2" fill="none"/><path d="M1003.03-1114H1002v-2h1.03z" stroke="#5e5e5e" stroke-width=".05" fill="#5e5e5e"/><path d="M1120.33-1055.24l-4.64-14.26h9.26z" stroke="#5e5e5e" stroke-width="2" fill="#5e5e5e"/><path d="M1120.33-787v16.5" stroke="#5e5e5e" stroke-width="2" fill="none"/><path d="M1121.33-786.97h-2V-788h2z" stroke="#5e5e5e" stroke-width=".05" fill="#5e5e5e"/><path d="M1120.33-755.24l-4.64-14.26h9.26z" stroke="#5e5e5e" stroke-width="2" fill="#5e5e5e"/><path d="M1120.33-687v457" stroke="#5e5e5e" stroke-width="2" fill="none"/><path d="M1121.33-686.97h-2V-688h2z" stroke="#5e5e5e" stroke-width=".05" fill="#5e5e5e"/><path d="M1120.33-214.74L1115.7-229h9.26z" stroke="#5e5e5e" stroke-width="2" fill="#5e5e5e"/><path d="M835-597c0-4.42 3.58-8 8-8h144c4.42 0 8 3.58 8 8v66c0 4.42-3.58 8-8 8H843c-4.42 0-8-3.58-8-8z" stroke="#3aa6dd" stroke-width="4" fill="#fff"/><use xlink:href="#j" transform="matrix(1,0,0,1,840,-600) translate(27.833333333333357 15.999999999999995)"/><use xlink:href="#k" transform="matrix(1,0,0,1,840,-600) translate(26.222222222222243 39.999999999999986)"/><use xlink:href="#p" transform="matrix(1,0,0,1,840,-600) translate(3.6111111111111427 63.99999999999998)"/><path d="M832.7-177.5c0 22.1-32.56 40-72.7 40s-72.7-17.9-72.7-40 32.56-40 72.7-40 72.7 17.9 72.7 40z" stroke="#3aa6dd" stroke-width="4" fill-opacity="0"/><use xlink:href="#q" transform="matrix(1,0,0,1,699.312498394802,-205.49999999999997) translate(-3.043209876543216 32.44444444444444)"/><path d="M1140-177.5c0 29-29.1 52.5-65 52.5s-65-23.5-65-52.5 29.1-52.5 65-52.5 65 23.5 65 52.5z" stroke="#3aa6dd" stroke-width="4" fill-opacity="0"/><use xlink:href="#r" transform="matrix(1,0,0,1,1022,-217.99999999999997) translate(22.166666666666668 30.43402777777778)"/><use xlink:href="#s" transform="matrix(1,0,0,1,1022,-217.99999999999997) translate(11.148148148148152 57.10069444444445)"/><path d="M915-520v114c0 3.3 2.7 6 6 6h148c3.3 0 6 2.7 6 6v143.5" stroke="#5e5e5e" stroke-width="2" fill="none"/><path d="M916-519.97h-2V-521h2z" stroke="#5e5e5e" stroke-width=".05" fill="#5e5e5e"/><path d="M1075-235.24l-4.64-14.26h9.28z" stroke="#5e5e5e" stroke-width="2" fill="#5e5e5e"/><path d="M915-520v114c0 3.3-2.7 6-6 6H766c-3.3 0-6 2.7-6 6v156" stroke="#5e5e5e" stroke-width="2" fill="none"/><path d="M916-519.97h-2V-521h2z" stroke="#5e5e5e" stroke-width=".05" fill="#5e5e5e"/><path d="M760-222.74L755.36-237h9.28z" stroke="#5e5e5e" stroke-width="2" fill="#5e5e5e"/><path d="M1120.33-687v31c0 3.3-2.7 6-6 6H921c-3.3 0-6 2.7-6 6v18.5" stroke="#5e5e5e" stroke-width="2" fill="none"/><path d="M1121.33-686.97h-2V-688h2z" stroke="#5e5e5e" stroke-width=".05" fill="#5e5e5e"/><path d="M915-610.24l-4.64-14.26h9.28z" stroke="#5e5e5e" stroke-width="2" fill="#5e5e5e"/><path d="M920-1059v438.5" stroke="#5e5e5e" stroke-width="2" fill="none"/><path d="M921-1058.97h-2v-1.03h2z" stroke="#5e5e5e" stroke-width=".05" fill="#5e5e5e"/><path d="M916.12-610.03l.6-15 8.7 3.23z" stroke="#5e5e5e" stroke-width="2" fill="#5e5e5e"/><path d="M997.83-742c0-4.42 3.58-8 8-8h229c4.4 0 8 3.58 8 8v44c0 4.42-3.6 8-8 8h-229c-4.42 0-8-3.58-8-8z" stroke="#c54242" stroke-width="4" fill="#fff"/><g><use xlink:href="#t" transform="matrix(1,0,0,1,1002.8252032520327,-745) translate(-1.0555555555555145 29)"/></g><path d="M1628-760c17.67 0 32 17.9 32 40s-14.33 40-32 40h-96c-17.67 0-32-17.9-32-40s14.33-40 32-40z" stroke="#c54242" stroke-width="2" fill="#d2d3d5"/><g><use xlink:href="#u" transform="matrix(1,0,0,1,1505,-755) translate(30.971049382716053 26.118055555555554)"/><use xlink:href="#v" transform="matrix(1,0,0,1,1505,-755) translate(47.19944444444446 55.451388888888886)"/></g><path d="M1245.83-720h234.67" stroke="#5e5e5e" stroke-width="2" fill="none"/><path d="M1245.85-719h-1.02v-2h1.02z" stroke="#5e5e5e" stroke-width=".05" fill="#5e5e5e"/><path d="M1495.76-720l-14.26 4.64v-9.28z" stroke="#5e5e5e" stroke-width="2" fill="#5e5e5e"/><defs><path d="M230 0l2-204L168 0h-37L68-204 70 0H24v-248h70l56 185 57-185h69V0h-46" id="w"/><path d="M133-34C117-15 103 5 69 4 32 3 11-16 11-54c-1-60 55-63 116-61 1-26-3-47-28-47-18 1-26 9-28 27l-52-2c7-38 36-58 82-57s74 22 75 68l1 82c-1 14 12 18 25 15v27c-30 8-71 5-69-32zm-48 3c29 0 43-24 42-57-32 0-66-3-65 30 0 17 8 27 23 27" id="x"/><path d="M137-138c1-29-70-34-71-4 15 46 118 7 119 86 1 83-164 76-172 9l43-7c4 19 20 25 44 25 33 8 57-30 24-41C81-84 22-81 20-136c-2-80 154-74 161-7" id="y"/><path d="M136-208V0H84v-208H4v-40h212v40h-80" id="z"/><path d="M135-150c-39-12-60 13-60 57V0H25l-1-190h47c2 13-1 29 3 40 6-28 27-53 61-41v41" id="A"/><path d="M190-63c-7 42-38 67-86 67-59 0-84-38-90-98-12-110 154-137 174-36l-49 2c-2-19-15-32-35-32-30 0-35 28-38 64-6 74 65 87 74 30" id="B"/><path d="M185-48c-13 30-37 53-82 52C43 2 14-33 14-96s30-98 90-98c62 0 83 45 84 108H66c0 31 8 55 39 56 18 0 30-7 34-22zm-45-69c5-46-57-63-70-21-2 6-4 13-4 21h74" id="C"/><path d="M24-248c120-7 223 5 221 122C244-46 201 0 124 0H24v-248zM76-40c74 7 117-18 117-86 0-67-45-88-117-82v168" id="D"/><path d="M115-3C79 11 28 4 28-45v-112H4v-33h27l15-45h31v45h36v33H77v99c-1 23 16 31 38 25v30" id="E"/><path d="M25-224v-37h50v37H25zM25 0v-190h50V0H25" id="F"/><path d="M110-194c64 0 96 36 96 99 0 64-35 99-97 99-61 0-95-36-95-99 0-62 34-99 96-99zm-1 164c35 0 45-28 45-65 0-40-10-65-43-65-34 0-45 26-45 65 0 36 10 65 43 65" id="G"/><path d="M135-194c87-1 58 113 63 194h-50c-7-57 23-157-34-157-59 0-34 97-39 157H25l-1-190h47c2 12-1 28 3 38 12-26 28-41 61-42" id="H"/><g id="a"><use transform="matrix(0.05925925925925927,0,0,0.05925925925925927,0,0)" xlink:href="#w"/><use transform="matrix(0.05925925925925927,0,0,0.05925925925925927,17.718518518518522,0)" xlink:href="#x"/><use transform="matrix(0.05925925925925927,0,0,0.05925925925925927,29.570370370370377,0)" xlink:href="#y"/><use transform="matrix(0.05925925925925927,0,0,0.05925925925925927,41.42222222222223,0)" xlink:href="#y"/><use transform="matrix(0.05925925925925927,0,0,0.05925925925925927,53.274074074074086,0)" xlink:href="#z"/><use transform="matrix(0.05925925925925927,0,0,0.05925925925925927,65.06666666666668,0)" xlink:href="#A"/><use transform="matrix(0.05925925925925927,0,0,0.05925925925925927,73.36296296296297,0)" xlink:href="#x"/><use transform="matrix(0.05925925925925927,0,0,0.05925925925925927,85.21481481481482,0)" xlink:href="#B"/><use transform="matrix(0.05925925925925927,0,0,0.05925925925925927,97.06666666666666,0)" xlink:href="#C"/><use transform="matrix(0.05925925925925927,0,0,0.05925925925925927,108.91851851851851,0)" xlink:href="#D"/><use transform="matrix(0.05925925925925927,0,0,0.05925925925925927,124.26666666666667,0)" xlink:href="#C"/><use transform="matrix(0.05925925925925927,0,0,0.05925925925925927,136.11851851851853,0)" xlink:href="#E"/><use transform="matrix(0.05925925925925927,0,0,0.05925925925925927,143.1703703703704,0)" xlink:href="#C"/><use transform="matrix(0.05925925925925927,0,0,0.05925925925925927,155.02222222222224,0)" xlink:href="#B"/><use transform="matrix(0.05925925925925927,0,0,0.05925925925925927,166.8740740740741,0)" xlink:href="#E"/><use transform="matrix(0.05925925925925927,0,0,0.05925925925925927,173.92592592592595,0)" xlink:href="#F"/><use transform="matrix(0.05925925925925927,0,0,0.05925925925925927,179.85185185185188,0)" xlink:href="#G"/><use transform="matrix(0.05925925925925927,0,0,0.05925925925925927,192.82962962962966,0)" xlink:href="#H"/></g><path fill="#333" d="M85-194c31 0 48 13 60 33l-1-100h32l1 261h-30c-2-10 0-23-3-31C134-8 116 4 85 4 32 4 16-35 15-94c0-66 23-100 70-100zm9 24c-40 0-46 34-46 75 0 40 6 74 45 74 42 0 51-32 51-76 0-42-9-74-50-73" id="I"/><path fill="#333" d="M141-36C126-15 110 5 73 4 37 3 15-17 15-53c-1-64 63-63 125-63 3-35-9-54-41-54-24 1-41 7-42 31l-33-3c5-37 33-52 76-52 45 0 72 20 72 64v82c-1 20 7 32 28 27v20c-31 9-61-2-59-35zM48-53c0 20 12 33 32 33 41-3 63-29 60-74-43 2-92-5-92 41" id="J"/><path fill="#333" d="M59-47c-2 24 18 29 38 22v24C64 9 27 4 27-40v-127H5v-23h24l9-43h21v43h35v23H59v120" id="K"/><path fill="#333" d="M101-234c-31-9-42 10-38 44h38v23H63V0H32v-167H5v-23h27c-7-52 17-82 69-68v24" id="L"/><path fill="#333" d="M114-163C36-179 61-72 57 0H25l-1-190h30c1 12-1 29 2 39 6-27 23-49 58-41v29" id="M"/><path fill="#333" d="M210-169c-67 3-38 105-44 169h-31v-121c0-29-5-50-35-48C34-165 62-65 56 0H25l-1-190h30c1 10-1 24 2 32 10-44 99-50 107 0 11-21 27-35 58-36 85-2 47 119 55 194h-31v-121c0-29-5-49-35-48" id="N"/><path fill="#333" d="M100-194c63 0 86 42 84 106H49c0 40 14 67 53 68 26 1 43-12 49-29l28 8c-11 28-37 45-77 45C44 4 14-33 15-96c1-61 26-98 85-98zm52 81c6-60-76-77-97-28-3 7-6 17-6 28h103" id="O"/><g id="b"><use transform="matrix(0.055555555555555546,0,0,0.055555555555555546,0,0)" xlink:href="#I"/><use transform="matrix(0.055555555555555546,0,0,0.055555555555555546,11.111111111111109,0)" xlink:href="#J"/><use transform="matrix(0.055555555555555546,0,0,0.055555555555555546,22.222222222222218,0)" xlink:href="#K"/><use transform="matrix(0.055555555555555546,0,0,0.055555555555555546,27.77777777777777,0)" xlink:href="#J"/><use transform="matrix(0.055555555555555546,0,0,0.055555555555555546,38.88888888888888,0)" xlink:href="#L"/><use transform="matrix(0.055555555555555546,0,0,0.055555555555555546,44.444444444444436,0)" xlink:href="#M"/><use transform="matrix(0.055555555555555546,0,0,0.055555555555555546,51.05555555555554,0)" xlink:href="#J"/><use transform="matrix(0.055555555555555546,0,0,0.055555555555555546,62.16666666666666,0)" xlink:href="#N"/><use transform="matrix(0.055555555555555546,0,0,0.055555555555555546,78.77777777777776,0)" xlink:href="#O"/></g><path fill="#333" d="M206 0h-36l-40-164L89 0H53L-1-190h32L70-26l43-164h34l41 164 42-164h31" id="P"/><path fill="#333" d="M24-231v-30h32v30H24zM24 0v-190h32V0H24" id="Q"/><path fill="#333" d="M106-169C34-169 62-67 57 0H25v-261h32l-1 103c12-21 28-36 61-36 89 0 53 116 60 194h-32v-121c2-32-8-49-39-48" id="R"/><g id="c"><use transform="matrix(0.055555555555555546,0,0,0.055555555555555546,0,0)" xlink:href="#P"/><use transform="matrix(0.055555555555555546,0,0,0.055555555555555546,14.388888888888886,0)" xlink:href="#Q"/><use transform="matrix(0.055555555555555546,0,0,0.055555555555555546,18.777777777777775,0)" xlink:href="#K"/><use transform="matrix(0.055555555555555546,0,0,0.055555555555555546,24.33333333333333,0)" xlink:href="#R"/></g><path fill="#333" d="M100-194c62-1 85 37 85 99 1 63-27 99-86 99S16-35 15-95c0-66 28-99 85-99zM99-20c44 1 53-31 53-75 0-43-8-75-51-75s-53 32-53 75 10 74 51 75" id="S"/><path fill="#333" d="M84 4C-5 8 30-112 23-190h32v120c0 31 7 50 39 49 72-2 45-101 50-169h31l1 190h-30c-1-10 1-25-2-33-11 22-28 36-60 37" id="T"/><path fill="#333" d="M24 0v-261h32V0H24" id="U"/><g id="d"><use transform="matrix(0.055555555555555546,0,0,0.055555555555555546,0,0)" xlink:href="#L"/><use transform="matrix(0.055555555555555546,0,0,0.055555555555555546,5.5555555555555545,0)" xlink:href="#S"/><use transform="matrix(0.055555555555555546,0,0,0.055555555555555546,16.666666666666664,0)" xlink:href="#M"/><use transform="matrix(0.055555555555555546,0,0,0.055555555555555546,23.277777777777775,0)" xlink:href="#N"/><use transform="matrix(0.055555555555555546,0,0,0.055555555555555546,39.888888888888886,0)" xlink:href="#T"/><use transform="matrix(0.055555555555555546,0,0,0.055555555555555546,50.99999999999999,0)" xlink:href="#U"/><use transform="matrix(0.055555555555555546,0,0,0.055555555555555546,55.38888888888888,0)" xlink:href="#J"/></g><path fill="#333" d="M115-194c55 1 70 41 70 98S169 2 115 4C84 4 66-9 55-30l1 105H24l-1-265h31l2 30c10-21 28-34 59-34zm-8 174c40 0 45-34 45-75s-6-73-45-74c-42 0-51 32-51 76 0 43 10 73 51 73" id="V"/><path fill="#333" d="M96-169c-40 0-48 33-48 73s9 75 48 75c24 0 41-14 43-38l32 2c-6 37-31 61-74 61-59 0-76-41-82-99-10-93 101-131 147-64 4 7 5 14 7 22l-32 3c-4-21-16-35-41-35" id="W"/><path fill="#333" d="M117-194c89-4 53 116 60 194h-32v-121c0-31-8-49-39-48C34-167 62-67 57 0H25l-1-190h30c1 10-1 24 2 32 11-22 29-35 61-36" id="X"/><path fill="#333" d="M135-143c-3-34-86-38-87 0 15 53 115 12 119 90S17 21 10-45l28-5c4 36 97 45 98 0-10-56-113-15-118-90-4-57 82-63 122-42 12 7 21 19 24 35" id="Y"/><g id="e"><use transform="matrix(0.055555555555555546,0,0,0.055555555555555546,0,0)" xlink:href="#V"/><use transform="matrix(0.055555555555555546,0,0,0.055555555555555546,11.111111111111109,0)" xlink:href="#M"/><use transform="matrix(0.055555555555555546,0,0,0.055555555555555546,17.722222222222218,0)" xlink:href="#O"/><use transform="matrix(0.055555555555555546,0,0,0.055555555555555546,28.83333333333333,0)" xlink:href="#I"/><use transform="matrix(0.055555555555555546,0,0,0.055555555555555546,39.944444444444436,0)" xlink:href="#Q"/><use transform="matrix(0.055555555555555546,0,0,0.055555555555555546,44.33333333333332,0)" xlink:href="#W"/><use transform="matrix(0.055555555555555546,0,0,0.055555555555555546,54.33333333333332,0)" xlink:href="#K"/><use transform="matrix(0.055555555555555546,0,0,0.055555555555555546,59.88888888888888,0)" xlink:href="#Q"/><use transform="matrix(0.055555555555555546,0,0,0.055555555555555546,64.27777777777777,0)" xlink:href="#S"/><use transform="matrix(0.055555555555555546,0,0,0.055555555555555546,75.38888888888889,0)" xlink:href="#X"/><use transform="matrix(0.055555555555555546,0,0,0.055555555555555546,86.5,0)" xlink:href="#Y"/></g><g id="f"><use transform="matrix(0.055555555555555546,0,0,0.055555555555555546,0,0)" xlink:href="#L"/><use transform="matrix(0.055555555555555546,0,0,0.055555555555555546,5.5555555555555545,0)" xlink:href="#O"/><use transform="matrix(0.055555555555555546,0,0,0.055555555555555546,16.666666666666664,0)" xlink:href="#J"/><use transform="matrix(0.055555555555555546,0,0,0.055555555555555546,27.77777777777777,0)" xlink:href="#K"/><use transform="matrix(0.055555555555555546,0,0,0.055555555555555546,33.33333333333333,0)" xlink:href="#T"/><use transform="matrix(0.055555555555555546,0,0,0.055555555555555546,44.444444444444436,0)" xlink:href="#M"/><use transform="matrix(0.055555555555555546,0,0,0.055555555555555546,51.05555555555554,0)" xlink:href="#O"/><use transform="matrix(0.055555555555555546,0,0,0.055555555555555546,62.16666666666666,0)" xlink:href="#Y"/></g><g id="g"><use transform="matrix(0.055555555555555546,0,0,0.055555555555555546,0,0)" xlink:href="#Y"/><use transform="matrix(0.055555555555555546,0,0,0.055555555555555546,9.999999999999998,0)" xlink:href="#K"/><use transform="matrix(0.055555555555555546,0,0,0.055555555555555546,15.555555555555554,0)" xlink:href="#M"/><use transform="matrix(0.055555555555555546,0,0,0.055555555555555546,22.166666666666664,0)" xlink:href="#T"/><use transform="matrix(0.055555555555555546,0,0,0.055555555555555546,33.27777777777777,0)" xlink:href="#W"/><use transform="matrix(0.055555555555555546,0,0,0.055555555555555546,43.27777777777777,0)" xlink:href="#K"/><use transform="matrix(0.055555555555555546,0,0,0.055555555555555546,48.83333333333333,0)" xlink:href="#T"/><use transform="matrix(0.055555555555555546,0,0,0.055555555555555546,59.944444444444436,0)" xlink:href="#M"/><use transform="matrix(0.055555555555555546,0,0,0.055555555555555546,66.55555555555554,0)" xlink:href="#J"/><use transform="matrix(0.055555555555555546,0,0,0.055555555555555546,77.66666666666666,0)" xlink:href="#U"/></g><path fill="#333" d="M169-182c-1-43-94-46-97-3 18 66 151 10 154 114 3 95-165 93-204 36-6-8-10-19-12-30l50-8c3 46 112 56 116 5-17-69-150-10-154-114-4-87 153-88 188-35 5 8 8 18 10 28" id="Z"/><path fill="#333" d="M24 0v-248h52V0H24" id="aa"/><path fill="#333" d="M240-174c0 40-23 61-54 70L253 0h-59l-57-94H76V0H24v-248c93 4 217-23 216 74zM76-134c48-2 112 12 112-38 0-48-66-32-112-35v73" id="ab"/><path fill="#333" d="M238-95c0 69-44 99-111 99C63 4 22-25 22-93v-155h51v151c-1 38 19 59 55 60 90 1 49-130 58-211h52v153" id="ac"/><g id="h"><use transform="matrix(0.049382716049382706,0,0,0.049382716049382706,0,0)" xlink:href="#Z"/><use transform="matrix(0.049382716049382706,0,0,0.049382716049382706,11.85185185185185,0)" xlink:href="#aa"/><use transform="matrix(0.049382716049382706,0,0,0.049382716049382706,16.79012345679012,0)" xlink:href="#ab"/><use transform="matrix(0.049382716049382706,0,0,0.049382716049382706,29.58024691358024,0)" xlink:href="#aa"/><use transform="matrix(0.049382716049382706,0,0,0.049382716049382706,34.51851851851851,0)" xlink:href="#ac"/><use transform="matrix(0.049382716049382706,0,0,0.049382716049382706,47.30864197530863,0)" xlink:href="#Z"/></g><path fill="#333" d="M185-48c-13 30-37 53-82 52C43 2 14-33 14-96s30-98 90-98c62 0 83 45 84 108H66c0 31 8 55 39 56 18 0 30-7 34-22zm-45-69c5-46-57-63-70-21-2 6-4 13-4 21h74" id="ad"/><path fill="#333" d="M144 0l-44-69L55 0H2l70-98-66-92h53l41 62 40-62h54l-67 91 71 99h-54" id="ae"/><path fill="#333" d="M190-63c-7 42-38 67-86 67-59 0-84-38-90-98-12-110 154-137 174-36l-49 2c-2-19-15-32-35-32-30 0-35 28-38 64-6 74 65 87 74 30" id="af"/><path fill="#333" d="M85 4C-2 5 27-109 22-190h50c7 57-23 150 33 157 60-5 35-97 40-157h50l1 190h-47c-2-12 1-28-3-38-12 25-28 42-61 42" id="ag"/><path fill="#333" d="M115-3C79 11 28 4 28-45v-112H4v-33h27l15-45h31v45h36v33H77v99c-1 23 16 31 38 25v30" id="ah"/><path fill="#333" d="M133-34C117-15 103 5 69 4 32 3 11-16 11-54c-1-60 55-63 116-61 1-26-3-47-28-47-18 1-26 9-28 27l-52-2c7-38 36-58 82-57s74 22 75 68l1 82c-1 14 12 18 25 15v27c-30 8-71 5-69-32zm-48 3c29 0 43-24 42-57-32 0-66-3-65 30 0 17 8 27 23 27" id="ai"/><path fill="#333" d="M135-194c52 0 70 43 70 98 0 56-19 99-73 100-30 1-46-15-58-35L72 0H24l1-261h50v104c11-23 29-37 60-37zM114-30c31 0 40-27 40-66 0-37-7-63-39-63s-41 28-41 65c0 36 8 64 40 64" id="aj"/><path fill="#333" d="M25 0v-261h50V0H25" id="ak"/><g id="i"><use transform="matrix(0.049382716049382706,0,0,0.049382716049382706,0,0)" xlink:href="#ad"/><use transform="matrix(0.049382716049382706,0,0,0.049382716049382706,9.87654320987654,0)" xlink:href="#ae"/><use transform="matrix(0.049382716049382706,0,0,0.049382716049382706,19.75308641975308,0)" xlink:href="#ad"/><use transform="matrix(0.049382716049382706,0,0,0.049382716049382706,29.629629629629623,0)" xlink:href="#af"/><use transform="matrix(0.049382716049382706,0,0,0.049382716049382706,39.50617283950616,0)" xlink:href="#ag"/><use transform="matrix(0.049382716049382706,0,0,0.049382716049382706,50.32098765432097,0)" xlink:href="#ah"/><use transform="matrix(0.049382716049382706,0,0,0.049382716049382706,56.19753086419752,0)" xlink:href="#ai"/><use transform="matrix(0.049382716049382706,0,0,0.049382716049382706,66.07407407407406,0)" xlink:href="#aj"/><use transform="matrix(0.049382716049382706,0,0,0.049382716049382706,76.88888888888887,0)" xlink:href="#ak"/><use transform="matrix(0.049382716049382706,0,0,0.049382716049382706,81.82716049382714,0)" xlink:href="#ad"/></g><path fill="#333" d="M24-248c93 1 206-16 204 79-1 75-69 88-152 82V0H24v-248zm52 121c47 0 100 7 100-41 0-47-54-39-100-39v80" id="al"/><path fill="#333" d="M135-150c-39-12-60 13-60 57V0H25l-1-190h47c2 13-1 29 3 40 6-28 27-53 61-41v41" id="am"/><path fill="#333" d="M137-138c1-29-70-34-71-4 15 46 118 7 119 86 1 83-164 76-172 9l43-7c4 19 20 25 44 25 33 8 57-30 24-41C81-84 22-81 20-136c-2-80 154-74 161-7" id="an"/><path fill="#333" d="M110-194c64 0 96 36 96 99 0 64-35 99-97 99-61 0-95-36-95-99 0-62 34-99 96-99zm-1 164c35 0 45-28 45-65 0-40-10-65-43-65-34 0-45 26-45 65 0 36 10 65 43 65" id="ao"/><g id="j"><use transform="matrix(0.05555555555555554,0,0,0.05555555555555554,0,0)" xlink:href="#al"/><use transform="matrix(0.05555555555555554,0,0,0.05555555555555554,13.333333333333329,0)" xlink:href="#am"/><use transform="matrix(0.05555555555555554,0,0,0.05555555555555554,21.111111111111104,0)" xlink:href="#ad"/><use transform="matrix(0.05555555555555554,0,0,0.05555555555555554,32.222222222222214,0)" xlink:href="#af"/><use transform="matrix(0.05555555555555554,0,0,0.05555555555555554,43.33333333333332,0)" xlink:href="#ag"/><use transform="matrix(0.05555555555555554,0,0,0.05555555555555554,55.499999999999986,0)" xlink:href="#am"/><use transform="matrix(0.05555555555555554,0,0,0.05555555555555554,63.27777777777776,0)" xlink:href="#an"/><use transform="matrix(0.05555555555555554,0,0,0.05555555555555554,74.38888888888886,0)" xlink:href="#ao"/><use transform="matrix(0.05555555555555554,0,0,0.05555555555555554,86.55555555555551,0)" xlink:href="#am"/></g><path fill="#333" d="M25-224v-37h50v37H25zM25 0v-190h50V0H25" id="ap"/><path fill="#333" d="M135-194c87-1 58 113 63 194h-50c-7-57 23-157-34-157-59 0-34 97-39 157H25l-1-190h47c2 12-1 28 3 38 12-26 28-41 61-42" id="aq"/><g id="k"><use transform="matrix(0.05555555555555554,0,0,0.05555555555555554,0,0)" xlink:href="#af"/><use transform="matrix(0.05555555555555554,0,0,0.05555555555555554,11.111111111111107,0)" xlink:href="#ao"/><use transform="matrix(0.05555555555555554,0,0,0.05555555555555554,23.27777777777777,0)" xlink:href="#am"/><use transform="matrix(0.05555555555555554,0,0,0.05555555555555554,31.055555555555546,0)" xlink:href="#am"/><use transform="matrix(0.05555555555555554,0,0,0.05555555555555554,38.83333333333332,0)" xlink:href="#ad"/><use transform="matrix(0.05555555555555554,0,0,0.05555555555555554,49.94444444444443,0)" xlink:href="#af"/><use transform="matrix(0.05555555555555554,0,0,0.05555555555555554,61.055555555555536,0)" xlink:href="#ah"/><use transform="matrix(0.05555555555555554,0,0,0.05555555555555554,67.66666666666664,0)" xlink:href="#ap"/><use transform="matrix(0.05555555555555554,0,0,0.05555555555555554,73.2222222222222,0)" xlink:href="#ao"/><use transform="matrix(0.05555555555555554,0,0,0.05555555555555554,85.38888888888886,0)" xlink:href="#aq"/></g><path fill="#333" d="M67-93c0 74 22 123 53 168H70C40 30 18-18 18-93s22-123 52-168h50c-32 44-53 94-53 168" id="ar"/><path fill="#333" d="M186 0v-106H76V0H24v-248h52v99h110v-99h50V0h-50" id="as"/><path fill="#333" d="M195-6C206 82 75 100 31 46c-4-6-6-13-8-21l49-6c3 16 16 24 34 25 40 0 42-37 40-79-11 22-30 35-61 35-53 0-70-43-70-97 0-56 18-96 73-97 30 0 46 14 59 34l2-30h47zm-90-29c32 0 41-27 41-63 0-35-9-62-40-62-32 0-39 29-40 63 0 36 9 62 39 62" id="at"/><path fill="#333" d="M114-157C55-157 80-60 75 0H25v-261h50l-1 109c12-26 28-41 61-42 86-1 58 113 63 194h-50c-7-57 23-157-34-157" id="au"/><g id="l"><use transform="matrix(0.05555555555555554,0,0,0.05555555555555554,0,0)" xlink:href="#ar"/><use transform="matrix(0.05555555555555554,0,0,0.05555555555555554,6.611111111111109,0)" xlink:href="#as"/><use transform="matrix(0.05555555555555554,0,0,0.05555555555555554,20.999999999999993,0)" xlink:href="#ap"/><use transform="matrix(0.05555555555555554,0,0,0.05555555555555554,26.555555555555546,0)" xlink:href="#at"/><use transform="matrix(0.05555555555555554,0,0,0.05555555555555554,38.72222222222221,0)" xlink:href="#au"/><use transform="matrix(0.05555555555555554,0,0,0.05555555555555554,50.88888888888887,0)" xlink:href="#ad"/><use transform="matrix(0.05555555555555554,0,0,0.05555555555555554,61.99999999999998,0)" xlink:href="#an"/><use transform="matrix(0.05555555555555554,0,0,0.05555555555555554,73.11111111111109,0)" xlink:href="#ah"/></g><path fill="#333" d="M123 10C108 53 80 86 19 72V37c35 8 53-11 59-39L3-190h52l48 148c12-52 28-100 44-148h51" id="av"/><path fill="#333" d="M102-93c0 74-22 123-52 168H0C30 29 54-18 53-93c0-74-22-123-53-168h50c30 45 52 94 52 168" id="aw"/><g id="m"><use transform="matrix(0.05555555555555554,0,0,0.05555555555555554,0,0)" xlink:href="#ap"/><use transform="matrix(0.05555555555555554,0,0,0.05555555555555554,5.555555555555554,0)" xlink:href="#aq"/><use transform="matrix(0.05555555555555554,0,0,0.05555555555555554,17.722222222222214,0)" xlink:href="#ah"/><use transform="matrix(0.05555555555555554,0,0,0.05555555555555554,24.33333333333332,0)" xlink:href="#ad"/><use transform="matrix(0.05555555555555554,0,0,0.05555555555555554,35.44444444444443,0)" xlink:href="#aq"/><use transform="matrix(0.05555555555555554,0,0,0.05555555555555554,47.61111111111109,0)" xlink:href="#an"/><use transform="matrix(0.05555555555555554,0,0,0.05555555555555554,58.72222222222221,0)" xlink:href="#ap"/><use transform="matrix(0.05555555555555554,0,0,0.05555555555555554,64.27777777777776,0)" xlink:href="#ah"/><use transform="matrix(0.05555555555555554,0,0,0.05555555555555554,70.88888888888887,0)" xlink:href="#av"/><use transform="matrix(0.05555555555555554,0,0,0.05555555555555554,81.99999999999997,0)" xlink:href="#aw"/></g><path fill="#333" d="M24 0v-248h195v40H76v63h132v40H76v65h150V0H24" id="ax"/><path fill="#333" d="M147 0L96-86 75-71V0H25v-261h50v150l67-79h53l-66 74L201 0h-54" id="ay"/><path fill="#333" d="M24-248c120-7 223 5 221 122C244-46 201 0 124 0H24v-248zM76-40c74 7 117-18 117-86 0-67-45-88-117-82v168" id="az"/><g id="n"><use transform="matrix(0.05555555555555554,0,0,0.05555555555555554,0,0)" xlink:href="#ax"/><use transform="matrix(0.05555555555555554,0,0,0.05555555555555554,13.333333333333329,0)" xlink:href="#ak"/><use transform="matrix(0.05555555555555554,0,0,0.05555555555555554,18.888888888888882,0)" xlink:href="#ag"/><use transform="matrix(0.05555555555555554,0,0,0.05555555555555554,31.055555555555546,0)" xlink:href="#ah"/><use transform="matrix(0.05555555555555554,0,0,0.05555555555555554,37.66666666666665,0)" xlink:href="#ap"/><use transform="matrix(0.05555555555555554,0,0,0.05555555555555554,43.2222222222222,0)" xlink:href="#ao"/><use transform="matrix(0.05555555555555554,0,0,0.05555555555555554,55.388888888888864,0)" xlink:href="#aq"/><use transform="matrix(0.05555555555555554,0,0,0.05555555555555554,67.55555555555553,0)" xlink:href="#al"/><use transform="matrix(0.05555555555555554,0,0,0.05555555555555554,80.88888888888886,0)" xlink:href="#ad"/><use transform="matrix(0.05555555555555554,0,0,0.05555555555555554,91.99999999999997,0)" xlink:href="#ai"/><use transform="matrix(0.05555555555555554,0,0,0.05555555555555554,103.11111111111109,0)" xlink:href="#ay"/><use transform="matrix(0.05555555555555554,0,0,0.05555555555555554,114.22222222222221,0)" xlink:href="#az"/><use transform="matrix(0.05555555555555554,0,0,0.05555555555555554,128.6111111111111,0)" xlink:href="#ad"/><use transform="matrix(0.05555555555555554,0,0,0.05555555555555554,139.7222222222222,0)" xlink:href="#ah"/><use transform="matrix(0.05555555555555554,0,0,0.05555555555555554,146.33333333333331,0)" xlink:href="#ad"/><use transform="matrix(0.05555555555555554,0,0,0.05555555555555554,157.44444444444443,0)" xlink:href="#af"/><use transform="matrix(0.05555555555555554,0,0,0.05555555555555554,168.55555555555554,0)" xlink:href="#ah"/><use transform="matrix(0.05555555555555554,0,0,0.05555555555555554,175.16666666666666,0)" xlink:href="#ap"/><use transform="matrix(0.05555555555555554,0,0,0.05555555555555554,180.7222222222222,0)" xlink:href="#ao"/><use transform="matrix(0.05555555555555554,0,0,0.05555555555555554,192.88888888888886,0)" xlink:href="#aq"/></g><path fill="#333" d="M76-208v77h127v40H76V0H24v-248h183v40H76" id="aA"/><path fill="#333" d="M88-194c31-1 46 15 58 34l-1-101h50l1 261h-48c-2-10 0-23-3-31C134-8 116 4 84 4 32 4 16-41 15-95c0-56 19-97 73-99zm17 164c33 0 40-30 41-66 1-37-9-64-41-64s-38 30-39 65c0 43 13 65 39 65" id="aB"/><path fill="#333" d="M230 0l2-204L168 0h-37L68-204 70 0H24v-248h70l56 185 57-185h69V0h-46" id="aC"/><g id="o"><use transform="matrix(0.05555555555555554,0,0,0.05555555555555554,0,0)" xlink:href="#aA"/><use transform="matrix(0.05555555555555554,0,0,0.05555555555555554,12.166666666666663,0)" xlink:href="#ad"/><use transform="matrix(0.05555555555555554,0,0,0.05555555555555554,23.27777777777777,0)" xlink:href="#ai"/><use transform="matrix(0.05555555555555554,0,0,0.05555555555555554,34.38888888888888,0)" xlink:href="#ah"/><use transform="matrix(0.05555555555555554,0,0,0.05555555555555554,40.999999999999986,0)" xlink:href="#ag"/><use transform="matrix(0.05555555555555554,0,0,0.05555555555555554,53.16666666666665,0)" xlink:href="#am"/><use transform="matrix(0.05555555555555554,0,0,0.05555555555555554,60.94444444444443,0)" xlink:href="#ad"/><use transform="matrix(0.05555555555555554,0,0,0.05555555555555554,72.05555555555554,0)" xlink:href="#aA"/><use transform="matrix(0.05555555555555554,0,0,0.05555555555555554,84.2222222222222,0)" xlink:href="#ap"/><use transform="matrix(0.05555555555555554,0,0,0.05555555555555554,89.77777777777776,0)" xlink:href="#aq"/><use transform="matrix(0.05555555555555554,0,0,0.05555555555555554,101.94444444444441,0)" xlink:href="#aB"/><use transform="matrix(0.05555555555555554,0,0,0.05555555555555554,114.11111111111107,0)" xlink:href="#ad"/><use transform="matrix(0.05555555555555554,0,0,0.05555555555555554,125.22222222222219,0)" xlink:href="#am"/><use transform="matrix(0.05555555555555554,0,0,0.05555555555555554,132.99999999999994,0)" xlink:href="#aC"/><use transform="matrix(0.05555555555555554,0,0,0.05555555555555554,149.61111111111106,0)" xlink:href="#ad"/><use transform="matrix(0.05555555555555554,0,0,0.05555555555555554,160.72222222222217,0)" xlink:href="#ah"/><use transform="matrix(0.05555555555555554,0,0,0.05555555555555554,167.3333333333333,0)" xlink:href="#ai"/><use transform="matrix(0.05555555555555554,0,0,0.05555555555555554,178.4444444444444,0)" xlink:href="#aj"/><use transform="matrix(0.05555555555555554,0,0,0.05555555555555554,190.61111111111106,0)" xlink:href="#ao"/></g><path fill="#333" d="M135-194c53 0 70 44 70 98 0 56-19 98-73 100-31 1-45-17-59-34 3 33 2 69 2 105H25l-1-265h48c2 10 0 23 3 31 11-24 29-35 60-35zM114-30c33 0 39-31 40-66 0-38-9-64-40-64-56 0-55 130 0 130" id="aD"/><g id="p"><use transform="matrix(0.05555555555555554,0,0,0.05555555555555554,0,0)" xlink:href="#ar"/><use transform="matrix(0.05555555555555554,0,0,0.05555555555555554,6.611111111111109,0)" xlink:href="#aC"/><use transform="matrix(0.05555555555555554,0,0,0.05555555555555554,23.222222222222214,0)" xlink:href="#ao"/><use transform="matrix(0.05555555555555554,0,0,0.05555555555555554,35.38888888888888,0)" xlink:href="#aq"/><use transform="matrix(0.05555555555555554,0,0,0.05555555555555554,47.55555555555554,0)" xlink:href="#ao"/><use transform="matrix(0.05555555555555554,0,0,0.05555555555555554,59.72222222222221,0)" xlink:href="#ap"/><use transform="matrix(0.05555555555555554,0,0,0.05555555555555554,65.27777777777776,0)" xlink:href="#an"/><use transform="matrix(0.05555555555555554,0,0,0.05555555555555554,76.38888888888886,0)" xlink:href="#ao"/><use transform="matrix(0.05555555555555554,0,0,0.05555555555555554,88.55555555555551,0)" xlink:href="#ah"/><use transform="matrix(0.05555555555555554,0,0,0.05555555555555554,95.16666666666663,0)" xlink:href="#ao"/><use transform="matrix(0.05555555555555554,0,0,0.05555555555555554,107.33333333333329,0)" xlink:href="#aD"/><use transform="matrix(0.05555555555555554,0,0,0.05555555555555554,119.49999999999994,0)" xlink:href="#ap"/><use transform="matrix(0.05555555555555554,0,0,0.05555555555555554,125.05555555555549,0)" xlink:href="#af"/><use transform="matrix(0.05555555555555554,0,0,0.05555555555555554,136.1666666666666,0)" xlink:href="#aw"/></g><path fill="#333" d="M212-179c-10-28-35-45-73-45-59 0-87 40-87 99 0 60 29 101 89 101 43 0 62-24 78-52l27 14C228-24 195 4 139 4 59 4 22-46 18-125c-6-104 99-153 187-111 19 9 31 26 39 46" id="aE"/><path fill="#333" d="M185-189c-5-48-123-54-124 2 14 75 158 14 163 119 3 78-121 87-175 55-17-10-28-26-33-46l33-7c5 56 141 63 141-1 0-78-155-14-162-118-5-82 145-84 179-34 5 7 8 16 11 25" id="aF"/><path fill="#333" d="M33 0v-248h34V0H33" id="aG"/><path fill="#333" d="M33-154v-36h34v36H33zM33 0v-36h34V0H33" id="aH"/><path fill="#333" d="M63-220v92h138v28H63V0H30v-248h175v28H63" id="aI"/><path fill="#333" d="M177-190C167-65 218 103 67 71c-23-6-38-20-44-43l32-5c15 47 100 32 89-28v-30C133-14 115 1 83 1 29 1 15-40 15-95c0-56 16-97 71-98 29-1 48 16 59 35 1-10 0-23 2-32h30zM94-22c36 0 50-32 50-73 0-42-14-75-50-75-39 0-46 34-46 75s6 73 46 73" id="aJ"/><path fill="#333" d="M30-248c118-7 216 8 213 122C240-48 200 0 122 0H30v-248zM63-27c89 8 146-16 146-99s-60-101-146-95v194" id="aK"/><g id="q"><use transform="matrix(0.06172839506172839,0,0,0.06172839506172839,0,0)" xlink:href="#aE"/><use transform="matrix(0.06172839506172839,0,0,0.06172839506172839,15.987654320987653,0)" xlink:href="#aF"/><use transform="matrix(0.06172839506172839,0,0,0.06172839506172839,30.80246913580247,0)" xlink:href="#aG"/><use transform="matrix(0.06172839506172839,0,0,0.06172839506172839,36.97530864197531,0)" xlink:href="#aH"/><use transform="matrix(0.06172839506172839,0,0,0.06172839506172839,43.14814814814815,0)" xlink:href="#aI"/><use transform="matrix(0.06172839506172839,0,0,0.06172839506172839,56.66666666666667,0)" xlink:href="#Q"/><use transform="matrix(0.06172839506172839,0,0,0.06172839506172839,61.543209876543216,0)" xlink:href="#X"/><use transform="matrix(0.06172839506172839,0,0,0.06172839506172839,73.8888888888889,0)" xlink:href="#aJ"/><use transform="matrix(0.06172839506172839,0,0,0.06172839506172839,86.23456790123458,0)" xlink:href="#O"/><use transform="matrix(0.06172839506172839,0,0,0.06172839506172839,98.58024691358027,0)" xlink:href="#M"/><use transform="matrix(0.06172839506172839,0,0,0.06172839506172839,105.92592592592595,0)" xlink:href="#aG"/><use transform="matrix(0.06172839506172839,0,0,0.06172839506172839,112.09876543209879,0)" xlink:href="#aK"/></g><g id="r"><use transform="matrix(0.06172839506172839,0,0,0.06172839506172839,0,0)" xlink:href="#Z"/><use transform="matrix(0.06172839506172839,0,0,0.06172839506172839,14.814814814814813,0)" xlink:href="#ap"/><use transform="matrix(0.06172839506172839,0,0,0.06172839506172839,20.98765432098765,0)" xlink:href="#am"/><use transform="matrix(0.06172839506172839,0,0,0.06172839506172839,29.629629629629626,0)" xlink:href="#ap"/><use transform="matrix(0.06172839506172839,0,0,0.06172839506172839,35.80246913580247,0)" xlink:href="#ag"/><use transform="matrix(0.06172839506172839,0,0,0.06172839506172839,49.32098765432099,0)" xlink:href="#an"/></g><path fill="#333" d="M199 0l-22-63H83L61 0H9l90-248h61L250 0h-51zm-33-102l-36-108c-10 38-24 72-36 108h72" id="aL"/><g id="s"><use transform="matrix(0.06172839506172839,0,0,0.06172839506172839,0,0)" xlink:href="#aL"/><use transform="matrix(0.06172839506172839,0,0,0.06172839506172839,15.987654320987653,0)" xlink:href="#aB"/><use transform="matrix(0.06172839506172839,0,0,0.06172839506172839,29.50617283950617,0)" xlink:href="#ai"/><use transform="matrix(0.06172839506172839,0,0,0.06172839506172839,41.85185185185185,0)" xlink:href="#aD"/><use transform="matrix(0.06172839506172839,0,0,0.06172839506172839,55.37037037037037,0)" xlink:href="#ah"/><use transform="matrix(0.06172839506172839,0,0,0.06172839506172839,62.716049382716044,0)" xlink:href="#ad"/><use transform="matrix(0.06172839506172839,0,0,0.06172839506172839,75.06172839506172,0)" xlink:href="#am"/></g><g id="t"><use transform="matrix(0.05555555555555554,0,0,0.05555555555555554,0,0)" xlink:href="#aC"/><use transform="matrix(0.05555555555555554,0,0,0.05555555555555554,16.611111111111107,0)" xlink:href="#ad"/><use transform="matrix(0.05555555555555554,0,0,0.05555555555555554,27.722222222222214,0)" xlink:href="#ah"/><use transform="matrix(0.05555555555555554,0,0,0.05555555555555554,34.33333333333332,0)" xlink:href="#ai"/><use transform="matrix(0.05555555555555554,0,0,0.05555555555555554,45.44444444444443,0)" xlink:href="#aj"/><use transform="matrix(0.05555555555555554,0,0,0.05555555555555554,57.61111111111109,0)" xlink:href="#ao"/><use transform="matrix(0.05555555555555554,0,0,0.05555555555555554,69.77777777777776,0)" xlink:href="#aL"/><use transform="matrix(0.05555555555555554,0,0,0.05555555555555554,84.16666666666664,0)" xlink:href="#aB"/><use transform="matrix(0.05555555555555554,0,0,0.05555555555555554,96.3333333333333,0)" xlink:href="#aB"/><use transform="matrix(0.05555555555555554,0,0,0.05555555555555554,108.49999999999996,0)" xlink:href="#ag"/><use transform="matrix(0.05555555555555554,0,0,0.05555555555555554,120.6666666666666,0)" xlink:href="#af"/><use transform="matrix(0.05555555555555554,0,0,0.05555555555555554,131.77777777777771,0)" xlink:href="#ah"/><use transform="matrix(0.05555555555555554,0,0,0.05555555555555554,138.38888888888883,0)" xlink:href="#az"/><use transform="matrix(0.05555555555555554,0,0,0.05555555555555554,152.77777777777771,0)" xlink:href="#ad"/><use transform="matrix(0.05555555555555554,0,0,0.05555555555555554,163.88888888888883,0)" xlink:href="#af"/><use transform="matrix(0.05555555555555554,0,0,0.05555555555555554,174.99999999999994,0)" xlink:href="#au"/><use transform="matrix(0.05555555555555554,0,0,0.05555555555555554,187.1666666666666,0)" xlink:href="#ai"/><use transform="matrix(0.05555555555555554,0,0,0.05555555555555554,198.27777777777771,0)" xlink:href="#am"/><use transform="matrix(0.05555555555555554,0,0,0.05555555555555554,206.0555555555555,0)" xlink:href="#at"/><use transform="matrix(0.05555555555555554,0,0,0.05555555555555554,218.22222222222214,0)" xlink:href="#ad"/><use transform="matrix(0.05555555555555554,0,0,0.05555555555555554,229.33333333333326,0)" xlink:href="#am"/></g><g id="u"><use transform="matrix(0.06790123456790122,0,0,0.06790123456790122,0,0)" xlink:href="#aA"/><use transform="matrix(0.06790123456790122,0,0,0.06790123456790122,14.870370370370367,0)" xlink:href="#ad"/><use transform="matrix(0.06790123456790122,0,0,0.06790123456790122,28.45061728395061,0)" xlink:href="#ai"/><use transform="matrix(0.06790123456790122,0,0,0.06790123456790122,42.03086419753085,0)" xlink:href="#ah"/><use transform="matrix(0.06790123456790122,0,0,0.06790123456790122,50.1111111111111,0)" xlink:href="#ag"/><use transform="matrix(0.06790123456790122,0,0,0.06790123456790122,64.98148148148147,0)" xlink:href="#am"/><use transform="matrix(0.06790123456790122,0,0,0.06790123456790122,74.48765432098764,0)" xlink:href="#ad"/></g><g id="v"><use transform="matrix(0.06790123456790122,0,0,0.06790123456790122,0,0)" xlink:href="#aA"/><use transform="matrix(0.06790123456790122,0,0,0.06790123456790122,14.870370370370367,0)" xlink:href="#ap"/><use transform="matrix(0.06790123456790122,0,0,0.06790123456790122,21.660493827160487,0)" xlink:href="#ak"/><use transform="matrix(0.06790123456790122,0,0,0.06790123456790122,28.450617283950606,0)" xlink:href="#ad"/><use transform="matrix(0.06790123456790122,0,0,0.06790123456790122,42.030864197530846,0)" xlink:href="#an"/></g></defs></g></svg>