<svg xmlns="http://www.w3.org/2000/svg" xmlns:xlink="http://www.w3.org/1999/xlink" xmlns:lucid="lucid" width="514" height="650"><g transform="translate(-361.66666666666663 -125.54559614772171)" lucid:page-tab-id="0_0"><path d="M0 0h1870.87v1322.83H0z" fill="#fff"/><path d="M381.67 453.55c0-4.42 3.58-8 8-8h144c4.4 0 8 3.58 8 8v44c0 4.4-3.6 8-8 8h-144c-4.42 0-8-3.6-8-8z" stroke="#834187" stroke-width="4" fill="#fff"/><use xlink:href="#a" transform="matrix(1,0,0,1,386.66666666666663,450.5455961477217) translate(-3.0833333333333144 29)"/><path d="M461.67 348.55v76.5" stroke="#5e5e5e" stroke-width="2" fill="none"/><path d="M462.67 348.57h-2v-1.02h2" fill="#5e5e5e"/><path d="M461.67 440.3l-4.64-14.26h9.27z" stroke="#5e5e5e" stroke-width="2" fill="#5e5e5e"/><path d="M655.67 213.55c0-4.42 3.58-8 8-8h184c4.4 0 8 3.58 8 8v44c0 4.4-3.6 8-8 8h-184c-4.42 0-8-3.6-8-8z" stroke="#834187" stroke-width="4" fill="#fff"/><use xlink:href="#b" transform="matrix(1,0,0,1,660.6666666666666,210.5455961477217) translate(0.9444444444444571 28.5)"/><path d="M381.67 293.55c0-4.42 3.58-8 8-8h144c4.4 0 8 3.58 8 8v44c0 4.4-3.6 8-8 8h-144c-4.42 0-8-3.6-8-8z" stroke="#834187" stroke-width="4" fill="#fff"/><use xlink:href="#c" transform="matrix(1,0,0,1,386.66666666666663,290.5455961477217) translate(-3.166666666666643 29)"/><path d="M755.67 268.55v81c0 3.3-2.7 6-6 6H500.8c-3.3 0-6 2.68-6 6v63.5" stroke="#5e5e5e" stroke-width="2" fill="none"/><path d="M756.67 268.57h-2v-1.02h2" fill="#5e5e5e"/><path d="M494.8 440.3l-4.62-14.26h9.27z" stroke="#5e5e5e" stroke-width="2" fill="#5e5e5e"/><path d="M381.67 573.55c0-4.42 3.58-8 8-8h144c4.4 0 8 3.58 8 8v44c0 4.4-3.6 8-8 8h-144c-4.42 0-8-3.6-8-8z" stroke="#834187" stroke-width="4" fill="#fff"/><use xlink:href="#d" transform="matrix(1,0,0,1,386.66666666666663,570.5455961477217) translate(3.5277777777777857 28.5)"/><path d="M461.67 508.55v36.5" stroke="#5e5e5e" stroke-width="2" fill="none"/><path d="M462.67 508.57h-2v-1.02h2" fill="#5e5e5e"/><path d="M461.67 560.3l-4.64-14.26h9.27z" stroke="#5e5e5e" stroke-width="2" fill="#5e5e5e"/><path d="M381.67 693.55c0-4.42 3.58-8 8-8h144c4.4 0 8 3.58 8 8v44c0 4.4-3.6 8-8 8h-144c-4.42 0-8-3.6-8-8z" stroke="#834187" stroke-width="4" fill="#fff"/><use xlink:href="#e" transform="matrix(1,0,0,1,386.66666666666663,690.5455961477217) translate(14.222222222222243 28.5)"/><path d="M461.67 628.55v36.5" stroke="#5e5e5e" stroke-width="2" fill="none"/><path d="M462.67 628.57h-2v-1.02h2" fill="#5e5e5e"/><path d="M461.67 680.3l-4.64-14.26h9.27z" stroke="#5e5e5e" stroke-width="2" fill="#5e5e5e"/><path d="M544.67 715.55h96.83" stroke="#5e5e5e" stroke-width="2" fill="none"/><path d="M544.7 716.55h-1.03v-2h1.02" fill="#5e5e5e"/><path d="M656.76 715.55l-14.26 4.63v-9.27z" stroke="#5e5e5e" stroke-width="2" fill="#5e5e5e"/><path d="M461.67 208.05v57" stroke="#5e5e5e" stroke-width="2" fill="none"/><path d="M462.67 208.07h-2v-1.02h2" fill="#5e5e5e"/><path d="M461.67 280.3l-4.64-14.26h9.27z" stroke="#5e5e5e" stroke-width="2" fill="#5e5e5e"/><path d="M509.67 145.55c17.67 0 32 13.43 32 30 0 16.56-14.33 30-32 30h-96c-17.68 0-32-13.44-32-30 0-16.57 14.32-30 32-30z" stroke="#5e5e5e" stroke-width="3" fill="#fff"/><use xlink:href="#f" transform="matrix(1,0,0,1,386.66666666666663,150.5455961477217) translate(45.42592592592593 29.84722222222222)"/><path d="M788 675.55c17.67 0 32 17.9 32 40s-14.33 40-32 40h-96c-17.67 0-32-17.9-32-40s14.33-40 32-40z" stroke="#000" stroke-opacity="0" stroke-width="2" fill="#d2d3d5"/><use xlink:href="#g" transform="matrix(1,0,0,1,665,680.5455961477217) translate(13.472222222222236 40.0625)"/><defs><path fill="#333" d="M240-174c0 40-23 61-54 70L253 0h-59l-57-94H76V0H24v-248c93 4 217-23 216 74zM76-134c48-2 112 12 112-38 0-48-66-32-112-35v73" id="h"/><path fill="#333" d="M185-48c-13 30-37 53-82 52C43 2 14-33 14-96s30-98 90-98c62 0 83 45 84 108H66c0 31 8 55 39 56 18 0 30-7 34-22zm-45-69c5-46-57-63-70-21-2 6-4 13-4 21h74" id="i"/><path fill="#333" d="M84 4C32 4 15-41 15-95c0-55 18-99 73-99 29 0 47 12 58 34l2-30h48l-1 265h-49V-32C136-9 114 4 84 4zm21-34c32 0 41-29 41-66 0-36-9-64-40-64-33 0-39 30-40 65 0 43 13 65 39 65" id="j"/><path fill="#333" d="M85 4C-2 5 27-109 22-190h50c7 57-23 150 33 157 60-5 35-97 40-157h50l1 190h-47c-2-12 1-28-3-38-12 25-28 42-61 42" id="k"/><path fill="#333" d="M133-34C117-15 103 5 69 4 32 3 11-16 11-54c-1-60 55-63 116-61 1-26-3-47-28-47-18 1-26 9-28 27l-52-2c7-38 36-58 82-57s74 22 75 68l1 82c-1 14 12 18 25 15v27c-30 8-71 5-69-32zm-48 3c29 0 43-24 42-57-32 0-66-3-65 30 0 17 8 27 23 27" id="l"/><path fill="#333" d="M135-194c87-1 58 113 63 194h-50c-7-57 23-157-34-157-59 0-34 97-39 157H25l-1-190h47c2 12-1 28 3 38 12-26 28-41 61-42" id="m"/><path fill="#333" d="M115-3C79 11 28 4 28-45v-112H4v-33h27l15-45h31v45h36v33H77v99c-1 23 16 31 38 25v30" id="n"/><path fill="#333" d="M25-224v-37h50v37H25zM25 0v-190h50V0H25" id="o"/><path fill="#333" d="M121-226c-27-7-43 5-38 36h38v33H83V0H34v-157H6v-33h28c-9-59 32-81 87-68v32" id="p"/><path fill="#333" d="M190-63c-7 42-38 67-86 67-59 0-84-38-90-98-12-110 154-137 174-36l-49 2c-2-19-15-32-35-32-30 0-35 28-38 64-6 74 65 87 74 30" id="q"/><path fill="#333" d="M110-194c64 0 96 36 96 99 0 64-35 99-97 99-61 0-95-36-95-99 0-62 34-99 96-99zm-1 164c35 0 45-28 45-65 0-40-10-65-43-65-34 0-45 26-45 65 0 36 10 65 43 65" id="r"/><g id="a"><use transform="matrix(0.055555555555555546,0,0,0.055555555555555546,0,0)" xlink:href="#h"/><use transform="matrix(0.055555555555555546,0,0,0.055555555555555546,14.388888888888886,0)" xlink:href="#i"/><use transform="matrix(0.055555555555555546,0,0,0.055555555555555546,25.499999999999993,0)" xlink:href="#j"/><use transform="matrix(0.055555555555555546,0,0,0.055555555555555546,37.66666666666666,0)" xlink:href="#k"/><use transform="matrix(0.055555555555555546,0,0,0.055555555555555546,49.83333333333332,0)" xlink:href="#l"/><use transform="matrix(0.055555555555555546,0,0,0.055555555555555546,60.944444444444436,0)" xlink:href="#m"/><use transform="matrix(0.055555555555555546,0,0,0.055555555555555546,73.11111111111109,0)" xlink:href="#n"/><use transform="matrix(0.055555555555555546,0,0,0.055555555555555546,79.7222222222222,0)" xlink:href="#o"/><use transform="matrix(0.055555555555555546,0,0,0.055555555555555546,85.27777777777776,0)" xlink:href="#p"/><use transform="matrix(0.055555555555555546,0,0,0.055555555555555546,91.88888888888887,0)" xlink:href="#o"/><use transform="matrix(0.055555555555555546,0,0,0.055555555555555546,97.44444444444443,0)" xlink:href="#q"/><use transform="matrix(0.055555555555555546,0,0,0.055555555555555546,108.55555555555554,0)" xlink:href="#l"/><use transform="matrix(0.055555555555555546,0,0,0.055555555555555546,119.66666666666664,0)" xlink:href="#n"/><use transform="matrix(0.055555555555555546,0,0,0.055555555555555546,126.27777777777779,0)" xlink:href="#o"/><use transform="matrix(0.055555555555555546,0,0,0.055555555555555546,131.83333333333331,0)" xlink:href="#r"/><use transform="matrix(0.055555555555555546,0,0,0.055555555555555546,143.99999999999997,0)" xlink:href="#m"/></g><path fill="#333" d="M230 0l2-204L168 0h-37L68-204 70 0H24v-248h70l56 185 57-185h69V0h-46" id="s"/><path fill="#333" d="M135-194c52 0 70 43 70 98 0 56-19 99-73 100-30 1-46-15-58-35L72 0H24l1-261h50v104c11-23 29-37 60-37zM114-30c31 0 40-27 40-66 0-37-7-63-39-63s-41 28-41 65c0 36 8 64 40 64" id="t"/><path fill="#333" d="M25 0v-261h50V0H25" id="u"/><path fill="#333" d="M136-208V0H84v-208H4v-40h212v40h-80" id="v"/><path fill="#333" d="M24 0v-54h51V0H24" id="w"/><path fill="#333" d="M137-138c1-29-70-34-71-4 15 46 118 7 119 86 1 83-164 76-172 9l43-7c4 19 20 25 44 25 33 8 57-30 24-41C81-84 22-81 20-136c-2-80 154-74 161-7" id="x"/><path fill="#333" d="M128 0H69L1-190h53L99-40l48-150h52" id="y"/><g id="b"><use transform="matrix(0.055555555555555546,0,0,0.055555555555555546,0,0)" xlink:href="#s"/><use transform="matrix(0.055555555555555546,0,0,0.055555555555555546,16.611111111111107,0)" xlink:href="#i"/><use transform="matrix(0.055555555555555546,0,0,0.055555555555555546,27.722222222222214,0)" xlink:href="#n"/><use transform="matrix(0.055555555555555546,0,0,0.055555555555555546,34.33333333333332,0)" xlink:href="#l"/><use transform="matrix(0.055555555555555546,0,0,0.055555555555555546,45.44444444444443,0)" xlink:href="#t"/><use transform="matrix(0.055555555555555546,0,0,0.055555555555555546,57.611111111111086,0)" xlink:href="#r"/><use transform="matrix(0.055555555555555546,0,0,0.055555555555555546,69.77777777777776,0)" xlink:href="#u"/><use transform="matrix(0.055555555555555546,0,0,0.055555555555555546,75.33333333333331,0)" xlink:href="#o"/><use transform="matrix(0.055555555555555546,0,0,0.055555555555555546,80.88888888888887,0)" xlink:href="#n"/><use transform="matrix(0.055555555555555546,0,0,0.055555555555555546,87.49999999999999,0)" xlink:href="#i"/><use transform="matrix(0.055555555555555546,0,0,0.055555555555555546,98.6111111111111,0)" xlink:href="#v"/><use transform="matrix(0.055555555555555546,0,0,0.055555555555555546,109.27777777777777,0)" xlink:href="#l"/><use transform="matrix(0.055555555555555546,0,0,0.055555555555555546,120.38888888888889,0)" xlink:href="#t"/><use transform="matrix(0.055555555555555546,0,0,0.055555555555555546,132.55555555555554,0)" xlink:href="#u"/><use transform="matrix(0.055555555555555546,0,0,0.055555555555555546,138.1111111111111,0)" xlink:href="#i"/><use transform="matrix(0.055555555555555546,0,0,0.055555555555555546,149.2222222222222,0)" xlink:href="#w"/><use transform="matrix(0.055555555555555546,0,0,0.055555555555555546,154.77777777777774,0)" xlink:href="#q"/><use transform="matrix(0.055555555555555546,0,0,0.055555555555555546,165.88888888888886,0)" xlink:href="#x"/><use transform="matrix(0.055555555555555546,0,0,0.055555555555555546,176.99999999999997,0)" xlink:href="#y"/></g><path fill="#333" d="M135-194c53 0 70 44 70 98 0 56-19 98-73 100-31 1-45-17-59-34 3 33 2 69 2 105H25l-1-265h48c2 10 0 23 3 31 11-24 29-35 60-35zM114-30c33 0 39-31 40-66 0-38-9-64-40-64-56 0-55 130 0 130" id="z"/><path fill="#333" d="M135-150c-39-12-60 13-60 57V0H25l-1-190h47c2 13-1 29 3 40 6-28 27-53 61-41v41" id="A"/><path fill="#333" d="M220-157c-53 9-28 100-34 157h-49v-107c1-27-5-49-29-50C55-147 81-57 75 0H25l-1-190h47c2 12-1 28 3 38 10-53 101-56 108 0 13-22 24-43 59-42 82 1 51 116 57 194h-49v-107c-1-25-5-48-29-50" id="B"/><g id="c"><use transform="matrix(0.055555555555555546,0,0,0.055555555555555546,0,0)" xlink:href="#s"/><use transform="matrix(0.055555555555555546,0,0,0.055555555555555546,16.611111111111107,0)" xlink:href="#l"/><use transform="matrix(0.055555555555555546,0,0,0.055555555555555546,27.722222222222214,0)" xlink:href="#z"/><use transform="matrix(0.055555555555555546,0,0,0.055555555555555546,39.88888888888888,0)" xlink:href="#v"/><use transform="matrix(0.055555555555555546,0,0,0.055555555555555546,50.94444444444443,0)" xlink:href="#A"/><use transform="matrix(0.055555555555555546,0,0,0.055555555555555546,58.722222222222214,0)" xlink:href="#l"/><use transform="matrix(0.055555555555555546,0,0,0.055555555555555546,69.83333333333331,0)" xlink:href="#m"/><use transform="matrix(0.055555555555555546,0,0,0.055555555555555546,81.99999999999997,0)" xlink:href="#x"/><use transform="matrix(0.055555555555555546,0,0,0.055555555555555546,93.11111111111109,0)" xlink:href="#p"/><use transform="matrix(0.055555555555555546,0,0,0.055555555555555546,99.7222222222222,0)" xlink:href="#r"/><use transform="matrix(0.055555555555555546,0,0,0.055555555555555546,111.88888888888886,0)" xlink:href="#A"/><use transform="matrix(0.055555555555555546,0,0,0.055555555555555546,119.66666666666661,0)" xlink:href="#B"/><use transform="matrix(0.055555555555555546,0,0,0.055555555555555546,137.4444444444444,0)" xlink:href="#i"/><use transform="matrix(0.055555555555555546,0,0,0.055555555555555546,148.55555555555551,0)" xlink:href="#A"/></g><path fill="#333" d="M76-208v77h127v40H76V0H24v-248h183v40H76" id="C"/><path fill="#333" d="M24 0v-248h52v208h133V0H24" id="D"/><path fill="#333" d="M147 0L96-86 75-71V0H25v-261h50v150l67-79h53l-66 74L201 0h-54" id="E"/><path fill="#333" d="M195-6C206 82 75 100 31 46c-4-6-6-13-8-21l49-6c3 16 16 24 34 25 40 0 42-37 40-79-11 22-30 35-61 35-53 0-70-43-70-97 0-56 18-96 73-97 30 0 46 14 59 34l2-30h47zm-90-29c32 0 41-27 41-63 0-35-9-62-40-62-32 0-39 29-40 63 0 36 9 62 39 62" id="F"/><g id="d"><use transform="matrix(0.055555555555555546,0,0,0.055555555555555546,0,0)" xlink:href="#C"/><use transform="matrix(0.055555555555555546,0,0,0.055555555555555546,12.166666666666664,0)" xlink:href="#i"/><use transform="matrix(0.055555555555555546,0,0,0.055555555555555546,23.27777777777777,0)" xlink:href="#l"/><use transform="matrix(0.055555555555555546,0,0,0.055555555555555546,34.38888888888888,0)" xlink:href="#n"/><use transform="matrix(0.055555555555555546,0,0,0.055555555555555546,40.999999999999986,0)" xlink:href="#k"/><use transform="matrix(0.055555555555555546,0,0,0.055555555555555546,53.16666666666665,0)" xlink:href="#A"/><use transform="matrix(0.055555555555555546,0,0,0.055555555555555546,60.944444444444436,0)" xlink:href="#i"/><use transform="matrix(0.055555555555555546,0,0,0.055555555555555546,72.05555555555554,0)" xlink:href="#D"/><use transform="matrix(0.055555555555555546,0,0,0.055555555555555546,84.2222222222222,0)" xlink:href="#o"/><use transform="matrix(0.055555555555555546,0,0,0.055555555555555546,89.77777777777776,0)" xlink:href="#m"/><use transform="matrix(0.055555555555555546,0,0,0.055555555555555546,101.94444444444443,0)" xlink:href="#E"/><use transform="matrix(0.055555555555555546,0,0,0.055555555555555546,113.05555555555554,0)" xlink:href="#o"/><use transform="matrix(0.055555555555555546,0,0,0.055555555555555546,118.61111111111109,0)" xlink:href="#m"/><use transform="matrix(0.055555555555555546,0,0,0.055555555555555546,130.77777777777777,0)" xlink:href="#F"/></g><path fill="#333" d="M144 0l-44-69L55 0H2l70-98-66-92h53l41 62 40-62h54l-67 91 71 99h-54" id="G"/><path fill="#333" d="M24 0v-248h195v40H76v63h132v40H76v65h150V0H24" id="H"/><g id="e"><use transform="matrix(0.055555555555555546,0,0,0.055555555555555546,0,0)" xlink:href="#v"/><use transform="matrix(0.055555555555555546,0,0,0.055555555555555546,10.666666666666664,0)" xlink:href="#i"/><use transform="matrix(0.055555555555555546,0,0,0.055555555555555546,21.77777777777777,0)" xlink:href="#G"/><use transform="matrix(0.055555555555555546,0,0,0.055555555555555546,32.88888888888888,0)" xlink:href="#n"/><use transform="matrix(0.055555555555555546,0,0,0.055555555555555546,39.499999999999986,0)" xlink:href="#H"/><use transform="matrix(0.055555555555555546,0,0,0.055555555555555546,52.833333333333314,0)" xlink:href="#G"/><use transform="matrix(0.055555555555555546,0,0,0.055555555555555546,63.94444444444442,0)" xlink:href="#z"/><use transform="matrix(0.055555555555555546,0,0,0.055555555555555546,76.11111111111109,0)" xlink:href="#r"/><use transform="matrix(0.055555555555555546,0,0,0.055555555555555546,88.27777777777774,0)" xlink:href="#A"/><use transform="matrix(0.055555555555555546,0,0,0.055555555555555546,96.05555555555551,0)" xlink:href="#n"/><use transform="matrix(0.055555555555555546,0,0,0.055555555555555546,102.66666666666663,0)" xlink:href="#i"/><use transform="matrix(0.055555555555555546,0,0,0.055555555555555546,113.77777777777774,0)" xlink:href="#A"/></g><path fill="#333" d="M80-196l47-18 7 23-49 13 32 44-20 13-27-46-27 45-21-12 33-44-49-13 8-23 47 19-2-53h23" id="I"/><path fill="#333" d="M33 0v-38h34V0H33" id="J"/><path fill="#333" d="M210-169c-67 3-38 105-44 169h-31v-121c0-29-5-50-35-48C34-165 62-65 56 0H25l-1-190h30c1 10-1 24 2 32 10-44 99-50 107 0 11-21 27-35 58-36 85-2 47 119 55 194h-31v-121c0-29-5-49-35-48" id="K"/><path fill="#333" d="M9 0v-24l116-142H16v-24h144v24L44-24h123V0H9" id="L"/><path fill="#333" d="M240 0l2-218c-23 76-54 145-80 218h-23L58-218 59 0H30v-248h44l77 211c21-75 51-140 76-211h43V0h-30" id="M"/><path fill="#333" d="M30 0v-248h33v221h125V0H30" id="N"/><g id="f"><use transform="matrix(0.049382716049382706,0,0,0.049382716049382706,0,0)" xlink:href="#I"/><use transform="matrix(0.049382716049382706,0,0,0.049382716049382706,6.913580246913579,0)" xlink:href="#J"/><use transform="matrix(0.049382716049382706,0,0,0.049382716049382706,11.85185185185185,0)" xlink:href="#K"/><use transform="matrix(0.049382716049382706,0,0,0.049382716049382706,26.617283950617278,0)" xlink:href="#L"/><use transform="matrix(0.049382716049382706,0,0,0.049382716049382706,35.50617283950616,0)" xlink:href="#M"/><use transform="matrix(0.049382716049382706,0,0,0.049382716049382706,50.271604938271594,0)" xlink:href="#N"/></g><path fill="#333" d="M63-220v92h138v28H63V0H30v-248h175v28H63" id="O"/><path fill="#333" d="M100-194c63 0 86 42 84 106H49c0 40 14 67 53 68 26 1 43-12 49-29l28 8c-11 28-37 45-77 45C44 4 14-33 15-96c1-61 26-98 85-98zm52 81c6-60-76-77-97-28-3 7-6 17-6 28h103" id="P"/><path fill="#333" d="M141-36C126-15 110 5 73 4 37 3 15-17 15-53c-1-64 63-63 125-63 3-35-9-54-41-54-24 1-41 7-42 31l-33-3c5-37 33-52 76-52 45 0 72 20 72 64v82c-1 20 7 32 28 27v20c-31 9-61-2-59-35zM48-53c0 20 12 33 32 33 41-3 63-29 60-74-43 2-92-5-92 41" id="Q"/><path fill="#333" d="M59-47c-2 24 18 29 38 22v24C64 9 27 4 27-40v-127H5v-23h24l9-43h21v43h35v23H59v120" id="R"/><path fill="#333" d="M84 4C-5 8 30-112 23-190h32v120c0 31 7 50 39 49 72-2 45-101 50-169h31l1 190h-30c-1-10 1-25-2-33-11 22-28 36-60 37" id="S"/><path fill="#333" d="M114-163C36-179 61-72 57 0H25l-1-190h30c1 12-1 29 2 39 6-27 23-49 58-41v29" id="T"/><path fill="#333" d="M24-231v-30h32v30H24zM24 0v-190h32V0H24" id="U"/><path fill="#333" d="M141 0L90-78 38 0H4l68-98-65-92h35l48 74 47-74h35l-64 92 68 98h-35" id="V"/><g id="g"><use transform="matrix(0.055555555555555546,0,0,0.055555555555555546,0,0)" xlink:href="#O"/><use transform="matrix(0.055555555555555546,0,0,0.055555555555555546,12.166666666666664,0)" xlink:href="#P"/><use transform="matrix(0.055555555555555546,0,0,0.055555555555555546,23.27777777777777,0)" xlink:href="#Q"/><use transform="matrix(0.055555555555555546,0,0,0.055555555555555546,34.38888888888888,0)" xlink:href="#R"/><use transform="matrix(0.055555555555555546,0,0,0.055555555555555546,39.944444444444436,0)" xlink:href="#S"/><use transform="matrix(0.055555555555555546,0,0,0.055555555555555546,51.05555555555554,0)" xlink:href="#T"/><use transform="matrix(0.055555555555555546,0,0,0.055555555555555546,57.66666666666666,0)" xlink:href="#P"/><use transform="matrix(0.055555555555555546,0,0,0.055555555555555546,68.77777777777776,0)" xlink:href="#M"/><use transform="matrix(0.055555555555555546,0,0,0.055555555555555546,85.38888888888886,0)" xlink:href="#Q"/><use transform="matrix(0.055555555555555546,0,0,0.055555555555555546,96.49999999999997,0)" xlink:href="#R"/><use transform="matrix(0.055555555555555546,0,0,0.055555555555555546,102.05555555555553,0)" xlink:href="#T"/><use transform="matrix(0.055555555555555546,0,0,0.055555555555555546,108.66666666666664,0)" xlink:href="#U"/><use transform="matrix(0.055555555555555546,0,0,0.055555555555555546,113.05555555555553,0)" xlink:href="#V"/></g></defs></g></svg>